<?xml version="1.0" encoding="UTF-8"?>
<svg version="1.1" xmlns="http://www.w3.org/2000/svg" width="209" height="49">
<path d="M0 0 C68.97 0 137.94 0 209 0 C209 16.17 209 32.34 209 49 C140.03 49 71.06 49 0 49 C0 32.83 0 16.66 0 0 Z " fill="#FAFAFC" transform="translate(0,0)"/>
<path d="M0 0 C4.95 0 9.9 0 15 0 C15.71027344 1.79308594 16.42054687 3.58617187 17.15234375 5.43359375 C18.0805937 7.76828303 19.00898648 10.10291553 19.9375 12.4375 C20.40607422 13.62150391 20.87464844 14.80550781 21.35742188 16.02539062 C21.80537109 17.15009766 22.25332031 18.27480469 22.71484375 19.43359375 C23.12855225 20.47572021 23.54226074 21.51784668 23.96850586 22.59155273 C24.78402023 24.90789285 24.78402023 24.90789285 26 26 C29.3 17.42 32.6 8.84 36 0 C40.95 0 45.9 0 51 0 C51 14.52 51 29.04 51 44 C47.04 44 43.08 44 39 44 C38.67 37.4 38.34 30.8 38 24 C35.69 30.6 33.38 37.2 31 44 C27.37 44 23.74 44 20 44 C17.69 37.07 15.38 30.14 13 23 C12.67 29.93 12.34 36.86 12 44 C8.04 44 4.08 44 0 44 C0 29.48 0 14.96 0 0 Z " fill="#172375" transform="translate(56,3)"/>
<path d="M0 0 C4.05523038 2.85709413 7.51585617 6.46921234 9.75 10.9375 C10.26472399 16.57414961 10.53613214 21.39234372 7.9375 26.5 C6.25302391 28.37698765 4.54162136 30.16641298 2.75 31.9375 C3.43707031 32.11925781 4.12414063 32.30101562 4.83203125 32.48828125 C6.18361328 32.86533203 6.18361328 32.86533203 7.5625 33.25 C8.45582031 33.49363281 9.34914062 33.73726562 10.26953125 33.98828125 C12.82371688 34.96570977 14.09949269 35.7774401 15.75 37.9375 C15.47963853 40.91147616 14.89553974 41.79196026 12.75 43.9375 C9.69994553 44.14995194 6.74305373 44.24145229 3.69140625 44.23828125 C2.79131332 44.24256638 1.8912204 44.2468515 0.96385193 44.25126648 C-0.94181476 44.2570153 -2.84750339 44.25750599 -4.75317383 44.25317383 C-7.6724181 44.25001631 -10.59064694 44.27345734 -13.50976562 44.29882812 C-15.35937372 44.30110127 -17.20898454 44.30180454 -19.05859375 44.30078125 C-19.93366074 44.309991 -20.80872772 44.31920074 -21.71031189 44.32868958 C-22.52448074 44.32246078 -23.3386496 44.31623199 -24.17749023 44.30981445 C-24.89315659 44.31044388 -25.60882294 44.3110733 -26.34617615 44.3117218 C-28.82526674 43.8244237 -29.72509832 42.91821941 -31.25 40.9375 C-31.4375 38.4375 -31.4375 38.4375 -30.25 35.9375 C-26.5174841 33.86765028 -22.37111758 32.93768135 -18.25 31.9375 C-19.013125 31.256875 -19.77625 30.57625 -20.5625 29.875 C-24.38123504 25.70103379 -26.03283252 22.00059108 -26.625 16.375 C-25.80615845 8.86895243 -21.6698501 4.77109008 -16.0625 0.125 C-10.77391225 -2.10795927 -5.39524786 -1.76383103 0 0 Z " fill="#464F90" transform="translate(36.25,5.0625)"/>
<path d="M0 0 C4.95 0 9.9 0 15 0 C18.6841029 8.60073018 21.97665083 17.27293358 25.0769043 26.0949707 C25.8254024 28.22420311 26.57933151 30.3514577 27.33398438 32.47851562 C31 42.85051007 31 42.85051007 31 44 C26.71 44 22.42 44 18 44 C17.34 41.69 16.68 39.38 16 37 C8.08 37.495 8.08 37.495 0 38 C-0.66 39.98 -1.32 41.96 -2 44 C-6.29 44 -10.58 44 -15 44 C-14.33571356 40.6785678 -13.72598146 37.96284964 -12.60131836 34.85229492 C-12.18099586 33.68164742 -12.18099586 33.68164742 -11.75218201 32.48735046 C-11.45111038 31.6600795 -11.15003876 30.83280853 -10.83984375 29.98046875 C-10.53051407 29.12189774 -10.22118439 28.26332672 -9.90248108 27.3787384 C-8.91746353 24.64711744 -7.92755393 21.91729909 -6.9375 19.1875 C-6.26725426 17.33149713 -5.59732873 15.4753786 -4.92773438 13.61914062 C-3.28886355 9.07807845 -1.64560415 4.53862625 0 0 Z " fill="#1B2777" transform="translate(174,3)"/>
<path d="M0 0 C0.69480469 -0.02449219 1.38960937 -0.04898437 2.10546875 -0.07421875 C8.26065454 -0.10899381 11.60874361 2.01699873 15.98828125 6.12109375 C16.70564453 6.95833984 16.70564453 6.95833984 17.4375 7.8125 C18.17419922 8.64587891 18.17419922 8.64587891 18.92578125 9.49609375 C20.36760975 11.75511495 20.74113036 13.74210587 21.125 16.375 C18.87606046 16.48323773 16.62562425 16.56069645 14.375 16.625 C12.49554688 16.69460937 12.49554688 16.69460937 10.578125 16.765625 C6.5125439 16.30571764 5.75717359 15.33905635 3.125 12.375 C0.3402566 11.5374014 -2.06993676 11.62200147 -4.875 12.375 C-7.92576557 15.50203471 -8.77224441 17.55295527 -9.3125 21.875 C-8.83842242 25.66762067 -7.87995696 28.13622337 -5.875 31.375 C-3.41548544 32.60475728 -2.09243376 32.38968511 0.625 32.125 C1.4190625 32.05796875 2.213125 31.9909375 3.03125 31.921875 C5.50635838 31.52322839 5.50635838 31.52322839 7.125 28.375 C10.3828125 28.08203125 10.3828125 28.08203125 14.25 28.1875 C16.17199219 28.22810547 16.17199219 28.22810547 18.1328125 28.26953125 C19.12023437 28.30433594 20.10765625 28.33914062 21.125 28.375 C19.12608705 35.06004378 16.10386139 39.12269017 10.5625 43.3125 C4.16040551 45.29132921 -3.55051356 45.65479457 -9.875 43.125 C-15.95055967 39.58092352 -19.89576089 36.25470813 -21.875 29.375 C-22.78172515 21.51671534 -22.96077891 13.81802665 -17.875 7.375 C-12.44609989 1.72836325 -7.71324207 0.01415274 0 0 Z " fill="#1B2676" transform="translate(134.875,2.625)"/>
<path d="M0 0 C3.73551811 2.71674044 5.44933373 5.58586385 6.75 10 C6.66864733 14.79980728 5.70409974 18.20187176 2.75 22 C-0.94321665 25.15009655 -4.33785512 25.52741985 -9.03515625 25.34765625 C-12.58943214 24.78975404 -14.6095828 23.38894889 -17.25 21 C-20.160372 16.634442 -20.9006249 13.20499921 -20.25 8 C-15.7127433 -0.73842031 -9.15393314 -2.81659481 0 0 Z " fill="#F1F2F6" transform="translate(35.25,10)"/>
<path d="M0 0 C4.45146251 2.18526342 7.18885145 4.9394521 10 9 C11.8172215 14.45166449 11.38081567 18.96951472 9.02978516 24.19433594 C7.23276551 27.34529784 4.75246226 29.60819434 2.0625 32 C1.53720703 32.50144531 1.01191406 33.00289062 0.47070312 33.51953125 C-3.30591498 36.95110164 -3.30591498 36.95110164 -5.99609375 37.140625 C-9.05570175 35.39909374 -11.56488074 33.13570724 -14.125 30.75 C-14.66253906 30.27175781 -15.20007813 29.79351562 -15.75390625 29.30078125 C-19.60216791 25.75961279 -21.56428527 22.91320894 -22.3359375 17.75390625 C-22.43292458 12.31293114 -21.6749113 9.27084287 -18 5 C-12.09652224 -0.20068279 -7.76521275 -0.7907996 0 0 Z M-17.875 9.3125 C-19.80120799 13.91399686 -19.51864395 17.53050882 -17.875 22.1875 C-15.55416594 25.6687511 -13.78078081 27.17962405 -10 29 C-5.28943147 29.82730415 -1.94488521 29.45494473 2.375 27.375 C5.37855123 24.65750127 6.7395074 22.85562442 8 19 C8.14477333 14.08735822 7.17976886 9.83765207 4 6 C-3.98166272 0.61701817 -11.7906725 1.80849609 -17.875 9.3125 Z " fill="#DADCE9" transform="translate(34,6)"/>
<path d="M0 0 C0 2.31 0 4.62 0 7 C-0.33 7 -0.66 7 -1 7 C-1 5.35 -1 3.7 -1 2 C-1.66 2 -2.32 2 -3 2 C-2.938125 3.27875 -2.87625 4.5575 -2.8125 5.875 C-2.70703125 8.0546875 -2.70703125 8.0546875 -3 10 C-6.122002 12.08133467 -6.93266989 12.2737822 -10.5 12.25 C-11.66015625 12.25773437 -11.66015625 12.25773437 -12.84375 12.265625 C-15 12 -15 12 -18 10 C-18.36760731 7.67182036 -18.70241581 5.3381615 -19 3 C-19.66 2.67 -20.32 2.34 -21 2 C-20 -1 -20 -1 -18.328125 -1.984375 C-10.97028374 -4.69515862 -6.95154357 -3.13500984 0 0 Z " fill="#384288" transform="translate(39,18)"/>
<path d="M0 0 C0 0.33 0 0.66 0 1 C-3.63 1.66 -7.26 2.32 -11 3 C-9.31238846 6.25334259 -9.31238846 6.25334259 -6.1796875 6.73046875 C-5.08914062 6.88128906 -3.99859375 7.03210937 -2.875 7.1875 C-1.23144531 7.42533203 -1.23144531 7.42533203 0.4453125 7.66796875 C1.28835937 7.77753906 2.13140625 7.88710938 3 8 C3 7.34 3 6.68 3 6 C1.7625 6.04125 0.525 6.0825 -0.75 6.125 C-4.01637962 6.13658291 -6.2146947 5.8568702 -9 4 C-6.53990037 2.76995019 -4.86827194 2.86685973 -2.125 2.875 C-1.26132812 2.87242188 -0.39765625 2.86984375 0.4921875 2.8671875 C3 3 3 3 5.2578125 3.5703125 C5.83273438 3.71210937 6.40765625 3.85390625 7 4 C7.33 3.67 7.66 3.34 8 3 C9.64230364 2.8754514 11.29052276 2.82431476 12.9375 2.8125 C13.83339844 2.79832031 14.72929688 2.78414062 15.65234375 2.76953125 C18 3 18 3 20 5 C17.11788698 5.96070434 15.30149956 6.10581883 12.3125 6.0625 C11.10013672 6.04896484 11.10013672 6.04896484 9.86328125 6.03515625 C8.94095703 6.01775391 8.94095703 6.01775391 8 6 C8 6.66 8 7.32 8 8 C12.29 7.01 16.58 6.02 21 5 C17.48283697 1.48283697 15.80432667 1.45323837 11 1 C11 0.67 11 0.34 11 0 C17.19887485 -0.37952295 21.4477112 0.1647887 27 3 C26.875 4.875 26.875 4.875 26 7 C19.79865219 9.63568834 13.69028549 9.33707858 7.05957031 9.31567383 C5.00532206 9.3125082 2.95250884 9.33603289 0.8984375 9.36132812 C-1.06222656 9.36229492 -1.06222656 9.36229492 -3.0625 9.36328125 C-4.24972656 9.36626221 -5.43695313 9.36924316 -6.66015625 9.37231445 C-10.35243407 8.96071185 -12.8001914 7.84189896 -16 6 C-15.8125 4.125 -15.8125 4.125 -15 2 C-10.51650857 -0.89257512 -5.13028158 -0.17931081 0 0 Z " fill="#EEEFF5" transform="translate(23,40)"/>
<path d="M0 0 C4.36003393 2.25971651 7.02806746 4.77859445 9.12890625 9.31640625 C9.91422046 14.28736423 9.68940084 18.10573794 7.56640625 22.69140625 C3.65923174 26.89913265 -0.08165555 29.48073102 -5.93359375 29.81640625 C-11.47280025 29.11301495 -14.13605437 26.82315098 -18.24609375 23.25390625 C-20.75797337 18.71320078 -20.61556293 14.38624136 -19.87109375 9.31640625 C-15.98562039 1.54545953 -8.86079716 -3.23724322 0 0 Z M-17.74609375 7.62890625 C-19.67230174 12.23040311 -19.3897377 15.84691507 -17.74609375 20.50390625 C-15.42525969 23.98515735 -13.65187456 25.4960303 -9.87109375 27.31640625 C-5.16052522 28.1437104 -1.81597896 27.77135098 2.50390625 25.69140625 C5.50745748 22.97390752 6.86841365 21.17203067 8.12890625 17.31640625 C8.27367958 12.40376447 7.30867511 8.15405832 4.12890625 4.31640625 C-3.85275647 -1.06657558 -11.66176625 0.12490234 -17.74609375 7.62890625 Z " fill="#3B458A" transform="translate(33.87109375,7.68359375)"/>
<path d="M0 0 C3.38665987 0 5.41111843 0.45540424 7.921875 2.77734375 C13.17291447 8.77698182 14.34669605 11.99104961 14.2890625 20.01171875 C13.76375095 25.44230435 10.69165917 28.35065211 7 32 C7.68707031 32.18175781 8.37414063 32.36351562 9.08203125 32.55078125 C10.43361328 32.92783203 10.43361328 32.92783203 11.8125 33.3125 C12.70582031 33.55613281 13.59914063 33.79976562 14.51953125 34.05078125 C17.07371688 35.02820977 18.34949269 35.8399401 20 38 C19.72963853 40.97397616 19.14553974 41.85446026 17 44 C13.875 44.125 13.875 44.125 11 44 C14 42 14 42 17 41 C17 40.01 17 39.02 17 38 C11.09965659 35.63986264 5.15229943 34.94923352 -1 37 C1.43441125 33.93959729 3.47173955 31.38990652 6.625 29.0625 C10.62961018 25.58481221 11.79178686 21.66570511 12.4375 16.5 C11.91158212 12.29265696 10.76231286 9.18728407 8 6 C5.93645574 4.47203212 3.85723602 3.18409722 1.609375 1.9453125 C1.07828125 1.63335937 0.5471875 1.32140625 0 1 C0 0.67 0 0.34 0 0 Z " fill="#3A4489" transform="translate(32,5)"/>
<path d="M0 0 C2 1 2 1 2.8515625 2.9609375 C3.10679687 3.75757813 3.36203125 4.55421875 3.625 5.375 C3.88539063 6.16648437 4.14578125 6.95796875 4.4140625 7.7734375 C5 10 5 10 5 13 C2.36 13 -0.28 13 -3 13 C-2.52060632 8.28596212 -2.03165952 4.33420699 0 0 Z " fill="#EAEBF2" transform="translate(181,17)"/>
<path d="M0 0 C0 0.33 0 0.66 0 1 C-3.63 1.66 -7.26 2.32 -11 3 C-8.59563974 6.60654039 -7.05320393 6.85452932 -3 8 C-3 8.33 -3 8.66 -3 9 C-8.26053037 9.31563182 -11.44573816 8.66590937 -16 6 C-15.8125 4.125 -15.8125 4.125 -15 2 C-10.51650857 -0.89257512 -5.13028158 -0.17931081 0 0 Z " fill="#EAEBF2" transform="translate(23,40)"/>
<path d="M0 0 C0.53367187 0.42152344 1.06734375 0.84304687 1.6171875 1.27734375 C7.38786198 5.52048675 11.85051779 6.9701483 19 7 C17.84826645 9.46800047 16.95216435 11.04783565 15 13 C10.80189003 12.84210648 8.1527325 9.77857385 5.25 7.0625 C4.74339844 6.60681641 4.23679687 6.15113281 3.71484375 5.68164062 C2.43214232 4.50093297 1.21064807 3.25448188 0 2 C0 1.34 0 0.68 0 0 Z " fill="#EDEEF4" transform="translate(15,30)"/>
<path d="M0 0 C3.63 0 7.26 0 11 0 C11 1.98 11 3.96 11 6 C7.37 6 3.74 6 0 6 C0 4.02 0 2.04 0 0 Z " fill="#F5F5F9" transform="translate(23,22)"/>
<path d="M0 0 C0.66 0.66 1.32 1.32 2 2 C-0.96164999 4.17768382 -2.45663808 5.02130831 -6.1875 4.875 C-9 4 -9 4 -11 1 C-7.23056711 -1.56321436 -4.3179896 -0.95955325 0 0 Z " fill="#EEEEF4" transform="translate(33,17)"/>
<path d="M0 0 C0 0.66 0 1.32 0 2 C-0.928125 1.95875 -1.85625 1.9175 -2.8125 1.875 C-6.15809719 1.72863661 -6.15809719 1.72863661 -9 4 C-7.68 4.66 -6.36 5.32 -5 6 C-5 6.66 -5 7.32 -5 8 C-6.32 7.67 -7.64 7.34 -9 7 C-9 8.65 -9 10.3 -9 12 C-9.33 12 -9.66 12 -10 12 C-10 10.02 -10 8.04 -10 6 C-11.32 5.67 -12.64 5.34 -14 5 C-13 2 -13 2 -11.328125 1.015625 C-7.19354438 -0.50764155 -4.35373516 -1.49659646 0 0 Z " fill="#495392" transform="translate(32,15)"/>
<path d="M0 0 C0 0.33 0 0.66 0 1 C-4.29 1.66 -8.58 2.32 -13 3 C-13.33 4.32 -13.66 5.64 -14 7 C-11.525 7.99 -11.525 7.99 -9 9 C-9 9.33 -9 9.66 -9 10 C-11.80362763 10.22732116 -13.46186517 10.34081872 -15.875 8.8125 C-17 7 -17 7 -17.1875 4.5 C-15.82468401 1.6309137 -15.26085231 1.33659607 -12.4375 0.125 C-7.98048477 -1.31768667 -4.55159662 -0.89406362 0 0 Z " fill="#4B5493" transform="translate(22,39)"/>
<path d="M0 0 C3.18706942 1.43561686 5.62169105 3.20266329 8.25 5.5 C8.95640625 6.1084375 9.6628125 6.716875 10.390625 7.34375 C12 9 12 9 12 11 C6.43993903 9.14664634 3.51966617 5.49735122 0 1 C0 0.67 0 0.34 0 0 Z " fill="#353F86" transform="translate(13,31)"/>
</svg>
